<svg preserveAspectRatio="none" width="100%" height="100%" overflow="visible" style="display: block;" viewBox="0 0 20 20" fill="none" xmlns="http://www.w3.org/2000/svg">
<g id="ion:notifications-sharp">
<path id="Vector" d="M10 18C10.5673 17.9994 11.1221 17.837 11.5967 17.5326C12.2573 17.1089 11.7871 16.2857 11.0023 16.2857H8.99768C8.21291 16.2857 7.74273 17.1089 8.40328 17.5326C8.87787 17.837 9.43271 17.9994 10 18ZM16.125 12.2857C15.5575 11.5445 15.25 10.637 15.25 9.7035V8.98107C15.25 6.7274 14.4502 4.73375 12.4861 3.94124C12.0539 3.76687 11.6989 3.41405 11.6208 2.95464C11.527 2.40332 11.0492 2 10.49 2H9.50969C8.95063 2 8.47307 2.40317 8.3793 2.95431C8.30111 3.41386 7.94587 3.76673 7.51327 3.94037C5.54324 4.7311 4.75 6.71913 4.75 8.98107V9.7035C4.75 10.637 4.44249 11.5445 3.875 12.2857L3.26376 13.0841C3.0927 13.3075 3 13.5811 3 13.8624C3 14.5696 3.57326 15.1429 4.28041 15.1429H15.7196C16.4267 15.1429 17 14.5696 17 13.8624C17 13.5811 16.9073 13.3075 16.7362 13.0841L16.125 12.2857Z" fill="url(#paint0_linear_0_4)"/>
</g>
<defs>
<linearGradient id="paint0_linear_0_4" x1="10.0023" y1="-18.5582" x2="10.0023" y2="36.5248" gradientUnits="userSpaceOnUse">
<stop stop-color="white" stop-opacity="0.5"/>
<stop offset="1" stop-color="white" stop-opacity="0.9"/>
</linearGradient>
</defs>
</svg>
