<svg preserveAspectRatio="none" width="100%" height="100%" overflow="visible" style="display: block;" viewBox="0 0 20 20" fill="none" xmlns="http://www.w3.org/2000/svg">
<g id="material-symbols:lock">
<path id="Vector" d="M5 18.3333C4.54167 18.3333 4.14944 18.1703 3.82333 17.8442C3.49722 17.5181 3.33389 17.1256 3.33333 16.6667V8.33333C3.33333 7.875 3.49667 7.48278 3.82333 7.15667C4.15 6.83056 4.54222 6.66722 5 6.66667H5.83333V5C5.83333 3.84722 6.23972 2.86472 7.0525 2.0525C7.86528 1.24028 8.84778 0.833889 10 0.833333C11.1522 0.832778 12.135 1.23917 12.9483 2.0525C13.7617 2.86583 14.1678 3.84833 14.1667 5V6.66667H15C15.4583 6.66667 15.8508 6.83 16.1775 7.15667C16.5042 7.48333 16.6672 7.87556 16.6667 8.33333V16.6667C16.6667 17.125 16.5036 17.5175 16.1775 17.8442C15.8514 18.1708 15.4589 18.3339 15 18.3333H5ZM11.1775 13.6775C11.5036 13.3508 11.6667 12.9583 11.6667 12.5C11.6667 12.0417 11.5036 11.6494 11.1775 11.3233C10.8514 10.9972 10.4589 10.8339 10 10.8333C9.54111 10.8328 9.14889 10.9961 8.82333 11.3233C8.49778 11.6506 8.33444 12.0428 8.33333 12.5C8.33222 12.9572 8.49556 13.3497 8.82333 13.6775C9.15111 14.0053 9.54333 14.1683 10 14.1667C10.4567 14.165 10.8492 14.0019 11.1775 13.6775ZM7.5 6.66667H12.5V5C12.5 4.30556 12.2569 3.71528 11.7708 3.22917C11.2847 2.74306 10.6944 2.5 10 2.5C9.30556 2.5 8.71528 2.74306 8.22917 3.22917C7.74306 3.71528 7.5 4.30556 7.5 5V6.66667Z" fill="url(#paint0_linear_0_9)"/>
</g>
<defs>
<linearGradient id="paint0_linear_0_9" x1="10" y1="0.833333" x2="10" y2="18.3333" gradientUnits="userSpaceOnUse">
<stop stop-color="white" stop-opacity="0.5"/>
<stop offset="1" stop-color="white" stop-opacity="0.9"/>
</linearGradient>
</defs>
</svg>
