<svg preserveAspectRatio="none" width="100%" height="100%" overflow="visible" style="display: block;" viewBox="0 0 17.5 18.595" fill="none" xmlns="http://www.w3.org/2000/svg">
<g id="Group">
<g id="Vector">
</g>
<path id="Vector_2" fill-rule="evenodd" clip-rule="evenodd" d="M10 1.25C10 0.918479 9.86831 0.600537 9.63389 0.366117C9.39947 0.131696 9.08152 0 8.75 0C8.41848 0 8.10054 0.131696 7.86612 0.366117C7.6317 0.600537 7.5 0.918479 7.5 1.25V9.58333C7.5 9.91485 7.6317 10.2328 7.86612 10.4672C8.10054 10.7016 8.41848 10.8333 8.75 10.8333C9.08152 10.8333 9.39947 10.7016 9.63389 10.4672C9.86831 10.2328 10 9.91485 10 9.58333V1.25ZM5.295 3.54167C5.4318 3.45078 5.54935 3.33384 5.64095 3.19753C5.73255 3.06121 5.7964 2.90819 5.82887 2.74719C5.86133 2.5862 5.86176 2.42039 5.83014 2.25923C5.79852 2.09807 5.73547 1.94471 5.64459 1.80792C5.5537 1.67112 5.43676 1.55357 5.30044 1.46197C5.16413 1.37037 5.01111 1.30652 4.85011 1.27405C4.68912 1.24159 4.52331 1.24116 4.36215 1.27278C4.20098 1.3044 4.04763 1.36745 3.91084 1.45833C2.70749 2.25623 1.72051 3.33977 1.03808 4.61216C0.355644 5.88454 -0.00100174 7.30616 2.1133e-06 8.75C2.1133e-06 13.5825 3.9175 17.5 8.75 17.5C13.5825 17.5 17.5 13.5825 17.5 8.75C17.5 5.705 15.9442 3.025 13.5892 1.45833C13.3129 1.27489 12.9751 1.20871 12.65 1.27435C12.325 1.33999 12.0393 1.53207 11.8558 1.80833C11.6724 2.0846 11.6062 2.42242 11.6719 2.74749C11.7375 3.07255 11.9296 3.35823 12.2058 3.54167C13.3247 4.28387 14.1747 5.36663 14.6302 6.62964C15.0857 7.89264 15.1223 9.26875 14.7347 10.5542C14.3471 11.8397 13.5559 12.9661 12.4781 13.7668C11.4004 14.5675 10.0935 14.9999 8.75084 14.9999C7.40821 14.9999 6.10128 14.5675 5.02354 13.7668C3.9458 12.9661 3.15455 11.8397 2.76695 10.5542C2.37934 9.26875 2.41599 7.89264 2.87146 6.62964C3.32693 5.36663 4.17618 4.28387 5.295 3.54167Z" fill="url(#paint0_linear_0_4)"/>
</g>
<defs>
<linearGradient id="paint0_linear_0_4" x1="8.75" y1="0" x2="8.75" y2="17.5" gradientUnits="userSpaceOnUse">
<stop stop-color="white" stop-opacity="0.5"/>
<stop offset="1" stop-color="white" stop-opacity="0.9"/>
</linearGradient>
</defs>
</svg>
