<svg preserveAspectRatio="none" width="100%" height="100%" overflow="visible" style="display: block;" viewBox="0 0 17.5003 17.5003" fill="none" xmlns="http://www.w3.org/2000/svg">
<g id="Group">
<path id="Union" d="M8.7503 0C10.8142 0.000144968 12.812 0.730216 14.39 2.06055C15.9679 3.39096 17.0253 5.23627 17.3743 7.27051C17.7233 9.30475 17.3415 11.3975 16.2972 13.1777C15.2529 14.9577 13.6129 16.312 11.6673 17C9.72156 17.6879 7.59448 17.6655 5.66339 16.9375C3.73214 16.2092 2.11981 14.8211 1.11261 13.0195C0.105528 11.218 -0.23261 9.11833 0.158507 7.0918C0.392007 5.88221 0.877719 4.74619 1.57159 3.75H1.2503C0.559948 3.75 0.000303542 3.19036 0.000303542 2.5C0.000303542 1.80964 0.559948 1.25 1.2503 1.25H4.58331C5.27353 1.25016 5.83331 1.80974 5.83331 2.5V5.83301C5.83331 6.52327 5.27353 7.08285 4.58331 7.08301C3.89311 7.08283 3.33331 6.52326 3.33331 5.83301V5.63379C2.99091 6.22911 2.74575 6.88079 2.61358 7.56543C2.33415 9.01305 2.57581 10.5129 3.29523 11.7998C4.01466 13.0865 5.16584 14.0775 6.54523 14.5977C7.92454 15.1177 9.44351 15.1339 10.8333 14.6426C12.2232 14.1511 13.395 13.1837 14.1409 11.9121C14.8867 10.6406 15.1597 9.14626 14.9105 7.69336C14.6612 6.24036 13.9057 4.92197 12.7786 3.97168C11.6515 3.02151 10.2244 2.50014 8.7503 2.5C8.06001 2.49993 7.5003 1.94031 7.5003 1.25C7.50031 0.559696 8.06002 7.33141e-05 8.7503 0Z" fill="url(#paint0_linear_0_7)"/>
</g>
<defs>
<linearGradient id="paint0_linear_0_7" x1="8.74946" y1="0" x2="8.74946" y2="17.5002" gradientUnits="userSpaceOnUse">
<stop stop-color="white" stop-opacity="0.5"/>
<stop offset="1" stop-color="white" stop-opacity="0.9"/>
</linearGradient>
</defs>
</svg>
