<svg preserveAspectRatio="none" width="100%" height="100%" overflow="visible" style="display: block;" viewBox="0 0 15.8333 17.7617" fill="none" xmlns="http://www.w3.org/2000/svg">
<g id="Group">
<g id="Vector">
</g>
<path id="Vector_2" fill-rule="evenodd" clip-rule="evenodd" d="M7.5 1.25C7.5 1.58152 7.6317 1.89946 7.86612 2.13388C8.10054 2.3683 8.41848 2.5 8.75 2.5H11.5658L7.86583 6.2C7.69119 6.37486 7.5723 6.59757 7.52418 6.83998C7.47607 7.08239 7.50089 7.33362 7.59552 7.56192C7.69014 7.79023 7.85031 7.98536 8.0558 8.12267C8.26129 8.25997 8.50286 8.33328 8.75 8.33333H14.5833C14.7475 8.33333 14.91 8.301 15.0617 8.23818C15.2133 8.17536 15.3511 8.08329 15.4672 7.96722C15.5833 7.85114 15.6754 7.71334 15.7382 7.56169C15.801 7.41003 15.8333 7.24749 15.8333 7.08333C15.8333 6.91918 15.801 6.75664 15.7382 6.60498C15.6754 6.45332 15.5833 6.31552 15.4672 6.19945C15.3511 6.08338 15.2133 5.9913 15.0617 5.92848C14.91 5.86567 14.7475 5.83333 14.5833 5.83333H11.7675L15.4675 2.13333C15.6421 1.95847 15.761 1.73577 15.8091 1.49336C15.8573 1.25095 15.8324 0.999716 15.7378 0.771409C15.6432 0.543103 15.483 0.347969 15.2775 0.210666C15.072 0.0733628 14.8305 5.2706e-05 14.5833 0H8.75C8.41848 0 8.10054 0.131696 7.86612 0.366117C7.6317 0.600537 7.5 0.918479 7.5 1.25ZM1.25 6.66667C0.918479 6.66667 0.600537 6.53497 0.366117 6.30055C0.131696 6.06613 0 5.74819 0 5.41667C0 5.08515 0.131696 4.7672 0.366117 4.53278C0.600537 4.29836 0.918479 4.16667 1.25 4.16667H5.41667C5.66373 4.16688 5.90519 4.24031 6.11055 4.37768C6.31591 4.51505 6.47596 4.71019 6.57048 4.93846C6.665 5.16673 6.68975 5.4179 6.64161 5.66023C6.59347 5.90256 6.47459 6.12519 6.3 6.3L4.26833 8.33333H5.41667C5.74819 8.33333 6.06613 8.46503 6.30055 8.69945C6.53497 8.93387 6.66667 9.25181 6.66667 9.58333C6.66667 9.91485 6.53497 10.2328 6.30055 10.4672C6.06613 10.7016 5.74819 10.8333 5.41667 10.8333H1.25C1.00293 10.8331 0.761472 10.7597 0.556113 10.6223C0.350753 10.485 0.190707 10.2898 0.0961884 10.0615C0.00166944 9.83327 -0.0230829 9.5821 0.0250578 9.33977C0.0731984 9.09744 0.192073 8.87481 0.366667 8.7L2.39917 6.66667H1.25ZM7.91667 12.5C7.58515 12.5 7.2672 12.3683 7.03278 12.1339C6.79836 11.8995 6.66667 11.5815 6.66667 11.25C6.66667 10.9185 6.79836 10.6005 7.03278 10.3661C7.2672 10.1317 7.58515 10 7.91667 10H11.25C11.4971 10.0002 11.7385 10.0736 11.9439 10.211C12.1492 10.3484 12.3093 10.5435 12.4038 10.7718C12.4983 11.0001 12.5231 11.2512 12.4749 11.4936C12.4268 11.7359 12.3079 11.9585 12.1333 12.1333L10.9342 13.3333H11.25C11.5815 13.3333 11.8995 13.465 12.1339 13.6995C12.3683 13.9339 12.5 14.2518 12.5 14.5833C12.5 14.9149 12.3683 15.2328 12.1339 15.4672C11.8995 15.7016 11.5815 15.8333 11.25 15.8333H7.91667C7.6696 15.8331 7.42814 15.7597 7.22278 15.6223C7.01742 15.485 6.85737 15.2898 6.76285 15.0615C6.66834 14.8333 6.64358 14.5821 6.69172 14.3398C6.73986 14.0974 6.85874 13.8748 7.03333 13.7L8.2325 12.5H7.91667Z" fill="url(#paint0_linear_0_11)"/>
</g>
<defs>
<linearGradient id="paint0_linear_0_11" x1="7.91667" y1="0" x2="7.91667" y2="15.8333" gradientUnits="userSpaceOnUse">
<stop stop-color="white" stop-opacity="0.5"/>
<stop offset="1" stop-color="white" stop-opacity="0.9"/>
</linearGradient>
</defs>
</svg>
