<svg preserveAspectRatio="none" width="100%" height="100%" overflow="visible" style="display: block;" viewBox="0 0 12 12" fill="none" xmlns="http://www.w3.org/2000/svg">
<g id="x">
<path id="Union" d="M8.06359 2.66412C8.41508 2.31263 8.98457 2.31263 9.33605 2.66412C9.68742 3.01562 9.6875 3.58513 9.33605 3.93658L7.2716 6.00006L9.33605 8.06451C9.68736 8.41601 9.68748 8.98554 9.33605 9.33697C8.98462 9.68827 8.41506 9.68823 8.06359 9.33697L5.99914 7.27252L3.93566 9.33697C3.5842 9.68823 3.01464 9.68828 2.6632 9.33697C2.31178 8.98554 2.3119 8.41601 2.6632 8.06451L4.72668 6.00006L2.6632 3.93658C2.31175 3.58513 2.31184 3.01562 2.6632 2.66412C3.01469 2.31263 3.58417 2.31263 3.93566 2.66412L5.99914 4.72759L8.06359 2.66412Z" fill="url(#paint0_linear_0_4)"/>
</g>
<defs>
<linearGradient id="paint0_linear_0_4" x1="6.00074" y1="-6.85086" x2="6.00074" y2="17.9368" gradientUnits="userSpaceOnUse">
<stop stop-color="white" stop-opacity="0.5"/>
<stop offset="1" stop-color="white" stop-opacity="0.9"/>
</linearGradient>
</defs>
</svg>
