<?xml version="1.0" encoding="UTF-8" standalone="no"?>
<!-- Created with Inkscape (http://www.inkscape.org/) -->

<svg
   width="124.72399mm"
   height="132.81792mm"
   viewBox="0 0 124.72399 132.81792"
   version="1.1"
   id="svg1"
   xmlns:xlink="http://www.w3.org/1999/xlink"
   xmlns="http://www.w3.org/2000/svg"
   xmlns:svg="http://www.w3.org/2000/svg">
  <defs
     id="defs1">
    <linearGradient
       id="linearGradient2">
      <stop
         style="stop-color:#ffffff;stop-opacity:1;"
         offset="0"
         id="stop1" />
      <stop
         style="stop-color:#ffffff;stop-opacity:0;"
         offset="1"
         id="stop2" />
    </linearGradient>
    <linearGradient
       id="linearGradient20">
      <stop
         style="stop-color:#ffffff;stop-opacity:1;"
         offset="0"
         id="stop20" />
      <stop
         style="stop-color:#ffffff;stop-opacity:0;"
         offset="1"
         id="stop21" />
    </linearGradient>
    <linearGradient
       id="linearGradient18">
      <stop
         style="stop-color:#ffffff;stop-opacity:1;"
         offset="0"
         id="stop18" />
      <stop
         style="stop-color:#ffffff;stop-opacity:0;"
         offset="1"
         id="stop19" />
    </linearGradient>
    <radialGradient
       xlink:href="#linearGradient2"
       id="radialGradient19"
       cx="98.550522"
       cy="114.97579"
       fx="98.550522"
       fy="114.97579"
       r="65.518745"
       gradientTransform="matrix(0.9518191,0,0,0.00233349,-16.217121,142.32584)"
       gradientUnits="userSpaceOnUse" />
    <radialGradient
       xlink:href="#linearGradient18"
       id="radialGradient20"
       gradientUnits="userSpaceOnUse"
       gradientTransform="matrix(0,1.013587,-0.00233349,0,60.474005,25.041875)"
       cx="98.550522"
       cy="114.97579"
       fx="98.550522"
       fy="114.97579"
       r="65.518745" />
    <radialGradient
       xlink:href="#linearGradient20"
       id="radialGradient21"
       cx="72.349709"
       cy="116.83411"
       fx="72.349709"
       fy="116.83411"
       r="0.1322915"
       gradientTransform="matrix(1.1556863,0,0,501.98956,-23.407854,-58524.575)"
       gradientUnits="userSpaceOnUse" />
  </defs>
  <g
     id="layer1"
     transform="translate(-15.223153,-58.522452)">
    <path
       id="path17"
       style="font-variation-settings:normal;opacity:1;vector-effect:none;fill:#ff0000;fill-opacity:1;fill-rule:evenodd;stroke-width:0.305775;stroke-linecap:butt;stroke-linejoin:miter;stroke-miterlimit:4;stroke-dasharray:none;stroke-dashoffset:0;stroke-opacity:1;-inkscape-stroke:none;stop-color:#000000;stop-opacity:1"
       d="m 64.982585,170.0618 a 33.490865,33.490865 0 0 0 34.799922,-32.12827 33.490865,33.490865 0 0 0 -32.128276,-34.79994 33.490865,33.490865 0 0 0 -34.799939,32.12828 33.490865,33.490865 0 0 0 -0.02242,1.74377 32.324894,32.501215 2.2859277 0 1 0.01179,-0.75798 32.324894,32.501215 2.2859277 0 1 33.595633,-31.18601 32.324894,32.501215 2.2859277 0 1 31.002903,33.76463 32.324894,32.501215 2.2859277 0 1 -33.350853,31.17843 33.490865,33.490865 0 0 0 0.891277,0.0571 z" />
    <path
       id="circle16"
       style="font-variation-settings:normal;opacity:1;vector-effect:none;fill:#ffffff;fill-opacity:1;fill-rule:evenodd;stroke-width:0.305775;stroke-linecap:butt;stroke-linejoin:miter;stroke-miterlimit:4;stroke-dasharray:none;stroke-dashoffset:0;stroke-opacity:1;-inkscape-stroke:none;stop-color:#000000;stop-opacity:1"
       d="m 93.882798,75.708671 a 33.490865,33.490865 0 0 0 -33.490761,33.490749 33.490865,33.490865 0 0 0 33.490761,33.49078 33.490865,33.490865 0 0 0 33.490762,-33.49078 33.490865,33.490865 0 0 0 -0.0472,-1.74327 32.324894,32.501215 0 0 1 0.0185,0.75786 32.324894,32.501215 0 0 1 -32.324999,32.5012 32.324894,32.501215 0 0 1 -32.324985,-32.5012 32.324894,32.501215 0 0 1 32.08073,-32.48384 33.490865,33.490865 0 0 0 -0.892848,-0.0215 z" />
    <path
       style="fill:#ffffff;fill-opacity:1;stroke:url(#radialGradient19);stroke-width:0.277498px;stroke-linecap:butt;stroke-linejoin:miter"
       d="M 15.223152,142.59413 H 139.94714"
       id="path18" />
    <path
       style="fill:url(#radialGradient21);stroke:url(#radialGradient20);stroke-width:0.286361px;stroke-linecap:butt;stroke-linejoin:miter"
       d="M 60.205713,58.522454 V 191.34037"
       id="path19" />
  </g>
</svg>
