<svg xmlns="http://www.w3.org/2000/svg" viewBox="0 0 512 512" role="img" aria-label="HypeShell">
  <defs>
    <linearGradient id="hype-shell-edge" x1="86" y1="62" x2="438" y2="450" gradientUnits="userSpaceOnUse">
      <stop offset="0" stop-color="#35f4d0"/>
      <stop offset="0.48" stop-color="#61a8ff"/>
      <stop offset="1" stop-color="#ff4dd2"/>
    </linearGradient>
    <linearGradient id="hype-shell-core" x1="150" y1="126" x2="360" y2="374" gradientUnits="userSpaceOnUse">
      <stop offset="0" stop-color="#ffffff"/>
      <stop offset="0.3" stop-color="#82ffe9"/>
      <stop offset="0.72" stop-color="#8db7ff"/>
      <stop offset="1" stop-color="#ff86df"/>
    </linearGradient>
    <filter id="hype-shell-glow" x="-35%" y="-35%" width="170%" height="170%">
      <feGaussianBlur stdDeviation="10" result="blur"/>
      <feColorMatrix in="blur" type="matrix" values="0 0 0 0 0.25 0 0 0 0 0.91 0 0 0 0 1 0 0 0 0.75 0"/>
      <feMerge>
        <feMergeNode/>
        <feMergeNode in="SourceGraphic"/>
      </feMerge>
    </filter>
  </defs>
  <rect x="42" y="42" width="428" height="428" rx="108" fill="#070a12"/>
  <path d="M116 118h280v276H116z" fill="#0f1726"/>
  <path d="M116 118h280v276H116z" fill="none" stroke="url(#hype-shell-edge)" stroke-width="18"/>
  <path d="M116 176h280" fill="none" stroke="url(#hype-shell-edge)" stroke-width="14" opacity="0.82"/>
  <circle cx="150" cy="147" r="9" fill="#ff5ed8"/>
  <circle cx="184" cy="147" r="9" fill="#73adff"/>
  <circle cx="218" cy="147" r="9" fill="#35f4d0"/>
  <g filter="url(#hype-shell-glow)">
    <path d="M164 220h56v58h72v-58h56v158h-56v-58h-72v58h-56V220z" fill="url(#hype-shell-core)"/>
    <path d="M152 348l42 30-42 30" fill="none" stroke="#35f4d0" stroke-width="24" stroke-linecap="round" stroke-linejoin="round"/>
    <path d="M224 408h116" fill="none" stroke="#ff6ede" stroke-width="24" stroke-linecap="round"/>
  </g>
  <path d="M86 86h340v340H86z" fill="none" stroke="url(#hype-shell-edge)" stroke-width="10" opacity="0.28"/>
</svg>
